<?xml version="1.0"  encoding="UTF-8" standalone="no"?>
<svg version="1.1" xmlns="http://www.w3.org/2000/svg" xmlns:xlink="http://www.w3.org/1999/xlink" width="1905.0000" height="692.0000">
<g transform="translate(-0.0000, -0.0000)">
<path d="M 453.0000,371.0000 L 1730.0000,357.0000 L 1739.0000,524.0000 L 448.0000,570.0000 L 453.0000,371.0000 Z" stroke-width="1px" stroke="#000000"  fill="#000000" />
<ellipse cx="1282.0000" cy="478.0000" rx="109.0000" ry="132.0000"  fill="#000000" stroke-width="1px" stroke="#000000" />
<ellipse cx="1344.0000" cy="480.0000" rx="110.0000" ry="134.0000"  fill="#000000" stroke-width="1px" stroke="#000000" />
<rect x="1278.0000" y="597.0000" width="62.0000" height="15.0000"  fill="#000000" stroke-width="1px" stroke="#000000" />
<ellipse cx="253.0000" cy="514.5000" rx="113.0000" ry="128.5000"  fill="#000000" stroke-width="1px" stroke="#000000" />
<ellipse cx="318.5000" cy="517.5000" rx="113.5000" ry="128.5000"  fill="#000000" stroke-width="1px" stroke="#000000" />
<rect x="246.0000" y="629.0000" width="66.0000" height="15.0000"  fill="#000000" stroke-width="1px" stroke="#000000" />
<ellipse cx="534.5000" cy="558.0000" rx="118.5000" ry="133.0000"  fill="#000000" stroke-width="1px" stroke="#000000" />
<ellipse cx="601.5000" cy="559.0000" rx="118.5000" ry="133.0000"  fill="#000000" stroke-width="1px" stroke="#000000" />
<rect x="531.0000" y="677.0000" width="69.0000" height="14.0000"  fill="#000000" stroke-width="1px" stroke="#000000" />
<ellipse cx="603.5000" cy="558.0000" rx="76.5000" ry="89.0000"  fill="#000000" stroke="#FFFFFF" stroke-width="1.0000"  stroke-linecap="round"  stroke-linejoin="round" />
<ellipse cx="604.0000" cy="556.5000" rx="67.0000" ry="79.5000"  fill="#FFFFFF" stroke="#000000" stroke-width="1.0000"  stroke-linecap="round"  stroke-linejoin="round" />
<ellipse cx="606.0000" cy="557.5000" rx="51.0000" ry="62.5000"  fill="#FFFFFF" stroke="#000000" stroke-width="1.0000"  stroke-linecap="round"  stroke-linejoin="round" />
<ellipse cx="609.5000" cy="558.0000" rx="29.5000" ry="36.0000"  fill="#FFFFFF" stroke="#000000" stroke-width="1.0000"  stroke-linecap="round"  stroke-linejoin="round" />
<path d="M 547.0000,532.0000 L 537.0000,528.0000 L 543.0000,516.0000 L 552.0000,519.0000 L 547.0000,532.0000 Z" stroke-width="1px" stroke="#FFFFFF"  fill="#FFFFFF" />
<path d="M 575.0000,493.0000 L 572.0000,485.0000 L 584.0000,479.0000 L 588.0000,487.0000 L 575.0000,493.0000 Z" stroke-width="1px" stroke="#FFFFFF"  fill="#FFFFFF" />
<path d="M 618.0000,487.0000 L 623.0000,479.0000 L 635.0000,485.0000 L 629.0000,494.0000 L 618.0000,487.0000 Z" stroke-width="1px" stroke="#FFFFFF"  fill="#FFFFFF" />
<path d="M 655.0000,520.0000 L 665.0000,518.0000 L 669.0000,532.0000 L 660.0000,535.0000 L 655.0000,520.0000 Z" stroke-width="1px" stroke="#FFFFFF"  fill="#FFFFFF" />
<path d="M 547.0000,579.0000 L 536.0000,585.0000 L 541.0000,598.0000 L 552.0000,593.0000 L 547.0000,579.0000 Z" stroke-width="1px" stroke="#FFFFFF"  fill="#FFFFFF" />
<path d="M 576.0000,618.0000 L 572.0000,630.0000 L 584.0000,636.0000 L 588.0000,624.0000 L 576.0000,618.0000 Z" stroke-width="1px" stroke="#FFFFFF"  fill="#FFFFFF" />
<path d="M 618.0000,624.0000 L 625.0000,636.0000 L 638.0000,630.0000 L 629.0000,618.0000 L 618.0000,624.0000 Z" stroke-width="1px" stroke="#FFFFFF"  fill="#FFFFFF" />
<path d="M 655.0000,592.0000 L 666.0000,596.0000 L 671.0000,581.0000 L 660.0000,577.0000 L 655.0000,592.0000 Z" stroke-width="1px" stroke="#FFFFFF"  fill="#FFFFFF" />
<ellipse cx="1563.5000" cy="532.0000" rx="103.5000" ry="130.0000"  fill="#000000" stroke-width="1px" stroke="#000000" />
<ellipse cx="1621.5000" cy="533.0000" rx="103.5000" ry="131.0000"  fill="#000000" stroke-width="1px" stroke="#000000" />
<rect x="1559.0000" y="649.0000" width="60.0000" height="14.0000"  fill="#000000" stroke-width="1px" stroke="#000000" />
<ellipse cx="1622.5000" cy="537.5000" rx="69.5000" ry="80.5000"  fill="#000000" stroke="#FFFFFF" stroke-width="1.0000"  stroke-linecap="round"  stroke-linejoin="round" />
<ellipse cx="1622.0000" cy="535.0000" rx="61.0000" ry="72.0000"  fill="#FFFFFF" stroke="#000000" stroke-width="1.0000"  stroke-linecap="round"  stroke-linejoin="round" />
<ellipse cx="1624.5000" cy="535.5000" rx="45.5000" ry="56.5000"  fill="#FFFFFF" stroke="#000000" stroke-width="1.0000"  stroke-linecap="round"  stroke-linejoin="round" />
<ellipse cx="1632.0000" cy="536.5000" rx="28.0000" ry="32.5000"  fill="#FFFFFF" stroke="#000000" stroke-width="1.0000"  stroke-linecap="round"  stroke-linejoin="round" />
<path d="M 1573.0000,514.0000 L 1563.0000,510.0000 L 1569.0000,499.0000 L 1577.0000,502.0000 L 1573.0000,514.0000 Z" stroke-width="1px" stroke="#FFFFFF"  fill="#FFFFFF" />
<path d="M 1598.0000,479.0000 L 1595.0000,471.0000 L 1606.0000,466.0000 L 1610.0000,475.0000 L 1598.0000,479.0000 Z" stroke-width="1px" stroke="#FFFFFF"  fill="#FFFFFF" />
<path d="M 1637.0000,475.0000 L 1641.0000,467.0000 L 1652.0000,472.0000 L 1647.0000,480.0000 L 1637.0000,475.0000 Z" stroke-width="1px" stroke="#FFFFFF"  fill="#FFFFFF" />
<path d="M 1670.0000,503.0000 L 1678.0000,501.0000 L 1682.0000,514.0000 L 1674.0000,516.0000 L 1670.0000,503.0000 Z" stroke-width="1px" stroke="#FFFFFF"  fill="#FFFFFF" />
<path d="M 1573.0000,557.0000 L 1562.0000,561.0000 L 1566.0000,573.0000 L 1577.0000,569.0000 L 1573.0000,557.0000 Z" stroke-width="1px" stroke="#FFFFFF"  fill="#FFFFFF" />
<path d="M 1598.0000,592.0000 L 1594.0000,603.0000 L 1606.0000,608.0000 L 1610.0000,597.0000 L 1598.0000,592.0000 Z" stroke-width="1px" stroke="#FFFFFF"  fill="#FFFFFF" />
<path d="M 1637.0000,597.0000 L 1643.0000,608.0000 L 1653.0000,602.0000 L 1647.0000,592.0000 L 1637.0000,597.0000 Z" stroke-width="1px" stroke="#FFFFFF"  fill="#FFFFFF" />
<path d="M 1670.0000,568.0000 L 1680.0000,572.0000 L 1684.0000,558.0000 L 1674.0000,555.0000 L 1670.0000,568.0000 Z" stroke-width="1px" stroke="#FFFFFF"  fill="#FFFFFF" />
<path d="M 89.0000,286.0000 L 145.0000,269.0000 L 219.0000,248.0000 L 297.0000,232.0000 L 350.0000,220.0000 L 369.0000,218.0000 L 392.0000,209.0000 L 416.0000,197.0000 L 445.0000,197.0000 L 539.0000,198.0000 L 623.0000,205.0000 L 697.0000,209.0000 L 749.0000,210.0000 L 771.0000,215.0000 L 800.0000,242.0000 L 978.0000,241.0000 L 1046.0000,241.0000 L 1092.0000,241.0000 L 1091.0000,196.0000 L 1087.0000,141.0000 L 1080.0000,90.0000 L 1075.0000,67.0000 L 1070.0000,62.0000 L 1064.0000,58.0000 L 1052.0000,57.0000 L 1030.0000,57.0000 L 933.0000,58.0000 L 917.0000,61.0000 L 904.0000,65.0000 L 891.0000,74.0000 L 882.0000,84.0000 L 869.0000,98.0000 L 837.0000,138.0000 L 800.0000,179.0000 L 767.0000,214.0000 L 749.0000,210.0000 L 720.0000,209.0000 L 733.0000,196.0000 L 784.0000,145.0000 L 868.0000,63.0000 L 871.0000,57.0000 L 869.0000,53.0000 L 866.0000,48.0000 L 863.0000,46.0000 L 859.0000,44.0000 L 849.0000,43.0000 L 831.0000,43.0000 L 814.0000,43.0000 L 773.0000,41.0000 L 724.0000,41.0000 L 661.0000,41.0000 L 628.0000,42.0000 L 605.0000,47.0000 L 618.0000,39.0000 L 633.0000,33.0000 L 648.0000,29.0000 L 692.0000,24.0000 L 915.0000,14.0000 L 1168.0000,8.0000 L 1540.0000,16.0000 L 1674.0000,21.0000 L 1704.0000,23.0000 L 1726.0000,27.0000 L 1750.0000,35.0000 L 1768.0000,44.0000 L 1782.0000,60.0000 L 1869.0000,238.0000 L 1876.0000,252.0000 L 1879.0000,269.0000 L 1880.0000,284.0000 L 1880.0000,417.0000 L 1897.0000,437.0000 L 1897.0000,472.0000 L 1887.0000,476.0000 L 1862.0000,510.0000 L 1854.0000,521.0000 L 1845.0000,524.0000 L 1726.0000,526.0000 L 1725.0000,491.0000 L 1721.0000,461.0000 L 1716.0000,438.0000 L 1708.0000,410.0000 L 1696.0000,393.0000 L 1680.0000,378.0000 L 1656.0000,369.0000 L 1633.0000,367.0000 L 1605.0000,370.0000 L 1580.0000,377.0000 L 1561.0000,389.0000 L 1545.0000,403.0000 L 1528.0000,426.0000 L 1514.0000,452.0000 L 1505.0000,473.0000 L 1497.0000,500.0000 L 1487.0000,530.0000 L 1184.0000,542.0000 L 727.0000,559.0000 L 729.0000,503.0000 L 724.0000,479.0000 L 717.0000,463.0000 L 711.0000,451.0000 L 705.0000,441.0000 L 697.0000,430.0000 L 679.0000,410.0000 L 667.0000,402.0000 L 655.0000,395.0000 L 642.0000,390.0000 L 624.0000,387.0000 L 609.0000,386.0000 L 595.0000,386.0000 L 584.0000,387.0000 L 569.0000,389.0000 L 559.0000,391.0000 L 545.0000,395.0000 L 531.0000,400.0000 L 517.0000,410.0000 L 504.0000,420.0000 L 491.0000,436.0000 L 482.0000,450.0000 L 472.0000,471.0000 L 463.0000,495.0000 L 454.0000,519.0000 L 444.0000,545.0000 L 431.0000,565.0000 L 418.0000,579.0000 L 407.0000,583.0000 L 336.0000,580.0000 L 254.0000,577.0000 L 202.0000,572.0000 L 152.0000,567.0000 L 125.0000,563.0000 L 94.0000,559.0000 L 77.0000,554.0000 L 77.0000,521.0000 L 53.0000,518.0000 L 45.0000,516.0000 L 36.0000,513.0000 L 27.0000,508.0000 L 20.0000,501.0000 L 15.0000,495.0000 L 12.0000,485.0000 L 8.0000,485.0000 L 8.0000,459.0000 L 12.0000,461.0000 L 12.0000,453.0000 L 43.0000,434.0000 L 58.0000,325.0000 L 61.0000,312.0000 L 66.0000,304.0000 L 76.0000,293.0000 L 89.0000,286.0000 Z" stroke="#000000" stroke-width="1.0000"  stroke-linecap="round"  stroke-linejoin="round"  fill="#DF1F3F" />
<path d="M 732.0000,202.0000 L 717.0000,215.0000 L 744.0000,215.0000 L 761.0000,220.0000 L 771.0000,207.0000 L 751.0000,202.0000 L 732.0000,202.0000 Z" stroke-width="1px" stroke="#DF1F3F"  fill="#DF1F3F" />
<rect x="1052.0000" y="319.0000" width="49.0000" height="35.0000"  fill="#000000" stroke-width="1px" stroke="#000000" />
<path d="M 377.0000,539.0000 L 445.0000,539.0000 L 445.0000,537.0000 " stroke="#000000" stroke-width="1.0000"  stroke-linecap="round"  stroke-linejoin="round" fill="none" />
<path d="M 385.0000,484.0000 L 468.0000,484.0000 " stroke="#000000" stroke-width="1.0000"  stroke-linecap="round"  stroke-linejoin="round" fill="none" />
<path d="M 59.0000,330.0000 L 106.0000,332.0000 L 173.0000,335.0000 L 261.0000,339.0000 L 304.0000,340.0000 L 344.0000,342.0000 L 353.0000,342.0000 L 367.0000,342.0000 L 384.0000,341.0000 L 384.0000,475.0000 " stroke="#000000" stroke-width="1.0000"  stroke-linecap="round"  stroke-linejoin="round" fill="none" />
<path d="M 379.0000,339.0000 L 404.0000,334.0000 L 513.0000,327.0000 L 653.0000,322.0000 L 796.0000,318.0000 L 1130.0000,308.0000 L 1878.0000,294.0000 " stroke="#000000" stroke-width="1.0000"  stroke-linecap="round"  stroke-linejoin="round" fill="none" />
<path d="M 1717.0000,444.0000 L 1776.0000,443.0000 L 1844.0000,440.0000 " stroke="#000000" stroke-width="1.0000"  stroke-linecap="round"  stroke-linejoin="round" fill="none" />
<rect x="1056.0000" y="327.0000" width="42.0000" height="11.0000"  fill="#C0C0C0" stroke-width="1px" stroke="#C0C0C0" />
<rect x="1084.0000" y="338.0000" width="9.0000" height="9.0000"  fill="#000000" stroke-width="1px" stroke="#000000" />
<path d="M 1844.0000,437.0000 L 1891.0000,432.0000 " stroke="#000000" stroke-width="1.0000"  stroke-linecap="round"  stroke-linejoin="round" fill="none" />
<path d="M 370.0000,350.0000 L 370.0000,475.0000 " stroke="#000000" stroke-width="1.0000"  stroke-linecap="round"  stroke-linejoin="round" fill="none" />
<path d="M 414.0000,198.0000 L 454.0000,167.0000 L 486.0000,141.0000 L 521.0000,112.0000 L 572.0000,74.0000 L 606.0000,47.0000 L 617.0000,43.0000 L 633.0000,41.0000 L 604.0000,61.0000 L 579.0000,79.0000 L 555.0000,98.0000 L 532.0000,116.0000 L 490.0000,149.0000 L 462.0000,174.0000 L 445.0000,192.0000 L 440.0000,197.0000 L 414.0000,198.0000 Z" stroke="#000000" stroke-width="1.0000"  stroke-linecap="round"  stroke-linejoin="round"  fill="#800000" />
<path d="M 383.0000,442.0000 L 459.0000,442.0000 L 465.0000,431.0000 L 473.0000,421.0000 L 480.0000,410.0000 L 490.0000,400.0000 L 498.0000,393.0000 L 506.0000,386.0000 L 514.0000,381.0000 L 522.0000,377.0000 L 534.0000,370.0000 L 547.0000,365.0000 L 561.0000,363.0000 L 572.0000,360.0000 L 586.0000,359.0000 L 605.0000,358.0000 L 627.0000,360.0000 L 647.0000,363.0000 L 665.0000,371.0000 L 677.0000,378.0000 L 689.0000,386.0000 L 699.0000,393.0000 L 706.0000,400.0000 L 713.0000,408.0000 L 720.0000,417.0000 L 725.0000,424.0000 L 727.0000,430.0000 L 730.0000,434.0000 L 734.0000,436.0000 L 753.0000,434.0000 L 1391.0000,420.0000 L 1507.0000,415.0000 L 1518.0000,397.0000 L 1526.0000,385.0000 L 1538.0000,372.0000 L 1550.0000,363.0000 L 1565.0000,353.0000 L 1583.0000,347.0000 L 1603.0000,342.0000 L 1624.0000,342.0000 L 1645.0000,345.0000 L 1672.0000,354.0000 L 1694.0000,368.0000 L 1711.0000,386.0000 L 1727.0000,406.0000 L 1856.0000,406.0000 " stroke="#000000" stroke-width="1.0000"  stroke-linecap="round"  stroke-linejoin="round" fill="none" />
<path d="M 1749.0000,49.0000 L 1818.0000,176.0000 L 1831.0000,206.0000 L 1842.0000,235.0000 L 1850.0000,261.0000 L 1857.0000,286.0000 L 1860.0000,321.0000 L 1860.0000,378.0000 L 1857.0000,412.0000 L 1856.0000,418.0000 L 1848.0000,426.0000 L 1844.0000,438.0000 L 1839.0000,465.0000 L 1833.0000,489.0000 L 1831.0000,503.0000 L 1833.0000,517.0000 " stroke="#000000" stroke-width="1.0000"  stroke-linecap="round"  stroke-linejoin="round" fill="none" />
<path d="M 344.0000,338.0000 L 346.0000,327.0000 L 350.0000,318.0000 L 354.0000,310.0000 L 360.0000,304.0000 L 369.0000,298.0000 L 379.0000,294.0000 L 390.0000,291.0000 L 697.0000,226.0000 L 703.0000,224.0000 L 710.0000,220.0000 L 722.0000,210.0000 " stroke="#000000" stroke-width="1.0000"  stroke-linecap="round"  stroke-linejoin="round" fill="none" />
<path d="M 384.0000,347.0000 L 408.0000,344.0000 L 449.0000,342.0000 L 497.0000,339.0000 L 534.0000,337.0000 L 681.0000,332.0000 L 878.0000,326.0000 L 1325.0000,316.0000 L 1629.0000,310.0000 L 1878.0000,306.0000 " stroke="#000000" stroke-width="1.0000"  stroke-linecap="round"  stroke-linejoin="round" fill="none" />
<path d="M 718.0000,475.0000 L 1238.0000,461.0000 L 1512.0000,452.0000 " stroke="#000000" stroke-width="1.0000"  stroke-linecap="round"  stroke-linejoin="round" fill="none" />
<path d="M 747.0000,210.0000 L 807.0000,143.0000 L 849.0000,98.0000 L 866.0000,80.0000 L 880.0000,65.0000 L 894.0000,55.0000 L 911.0000,47.0000 L 929.0000,42.0000 L 943.0000,39.0000 L 1493.0000,39.0000 L 1767.0000,44.0000 " stroke="#000000" stroke-width="1.0000"  stroke-linecap="round"  stroke-linejoin="round" fill="none" />
<path d="M 1089.0000,42.0000 L 1117.0000,232.0000 L 1118.0000,262.0000 L 1123.0000,304.0000 L 1125.0000,349.0000 L 1125.0000,380.0000 L 1124.0000,424.0000 L 1123.0000,459.0000 L 1119.0000,496.0000 L 1112.0000,526.0000 L 761.0000,537.0000 L 753.0000,483.0000 L 750.0000,436.0000 L 741.0000,337.0000 L 742.0000,287.0000 L 740.0000,249.0000 L 739.0000,231.0000 L 739.0000,223.0000 L 740.0000,218.0000 L 743.0000,214.0000 L 748.0000,209.0000 " stroke="#000000" stroke-width="1.0000"  stroke-linecap="round"  stroke-linejoin="round" fill="none" />
<path d="M 1844.0000,451.0000 L 1897.0000,446.0000 L 1897.0000,469.0000 L 1837.0000,475.0000 L 1844.0000,451.0000 Z" stroke="#000000" stroke-width="1.0000"  stroke-linecap="round"  stroke-linejoin="round"  fill="#800000" />
<path d="M 784.0000,197.0000 L 804.0000,251.0000 L 777.0000,248.0000 L 766.0000,246.0000 L 761.0000,242.0000 L 759.0000,236.0000 L 759.0000,229.0000 L 762.0000,222.0000 L 766.0000,216.0000 L 773.0000,207.0000 L 784.0000,197.0000 Z" stroke="#000000" stroke-width="1.0000"  stroke-linecap="round"  stroke-linejoin="round"  fill="#800000" />
<path d="M 774.0000,212.0000 L 784.0000,218.0000 L 790.0000,216.0000 L 795.0000,211.0000 L 803.0000,204.0000 L 810.0000,200.0000 L 819.0000,198.0000 L 832.0000,200.0000 L 865.0000,206.0000 L 867.0000,252.0000 L 863.0000,257.0000 L 851.0000,259.0000 L 800.0000,251.0000 L 793.0000,243.0000 L 774.0000,212.0000 Z" stroke-width="1px" stroke="#DF1F3F"  fill="#DF1F3F" />
<path d="M 775.0000,212.0000 L 783.0000,218.0000 L 789.0000,216.0000 L 793.0000,214.0000 L 799.0000,219.0000 L 814.0000,222.0000 L 823.0000,225.0000 L 835.0000,223.0000 L 844.0000,227.0000 L 866.0000,252.0000 L 862.0000,257.0000 L 850.0000,259.0000 L 800.0000,251.0000 L 792.0000,242.0000 L 775.0000,212.0000 Z" stroke-width="1px" stroke="#800000"  fill="#800000" />
<path d="M 865.0000,206.0000 L 855.0000,215.0000 L 846.0000,223.0000 L 842.0000,230.0000 L 841.0000,236.0000 L 841.0000,243.0000 L 846.0000,249.0000 L 860.0000,258.0000 L 867.0000,251.0000 L 865.0000,206.0000 Z" stroke-width="1px" stroke="#DF3F5F"  fill="#DF3F5F" />
<path d="M 8.0000,461.0000 L 24.0000,463.0000 L 45.0000,465.0000 L 74.0000,467.0000 L 115.0000,471.0000 L 156.0000,475.0000 L 193.0000,477.0000 L 231.0000,479.0000 L 267.0000,480.0000 L 298.0000,481.0000 L 341.0000,481.0000 L 371.0000,481.0000 L 385.0000,481.0000 L 387.0000,510.0000 L 351.0000,510.0000 L 304.0000,506.0000 L 262.0000,506.0000 L 224.0000,504.0000 L 187.0000,502.0000 L 158.0000,500.0000 L 129.0000,498.0000 L 98.0000,495.0000 L 71.0000,491.0000 L 49.0000,489.0000 L 25.0000,486.0000 L 8.0000,483.0000 L 8.0000,461.0000 Z" stroke="#000000" stroke-width="1.0000"  stroke-linecap="round"  stroke-linejoin="round"  fill="#800000" />
<path d="M 75.0000,350.0000 L 254.0000,359.0000 " stroke="#000000" stroke-width="1.0000"  stroke-linecap="round"  stroke-linejoin="round" fill="none" />
<path d="M 74.0000,361.0000 L 254.0000,370.0000 " stroke="#000000" stroke-width="1.0000"  stroke-linecap="round"  stroke-linejoin="round" fill="none" />
<path d="M 73.0000,373.0000 L 254.0000,382.0000 " stroke="#000000" stroke-width="1.0000"  stroke-linecap="round"  stroke-linejoin="round" fill="none" />
<path d="M 72.0000,384.0000 L 253.0000,393.0000 " stroke="#000000" stroke-width="1.0000"  stroke-linecap="round"  stroke-linejoin="round" fill="none" />
<path d="M 70.0000,396.0000 L 252.0000,406.0000 " stroke="#000000" stroke-width="1.0000"  stroke-linecap="round"  stroke-linejoin="round" fill="none" />
<path d="M 70.0000,409.0000 L 252.0000,419.0000 " stroke="#000000" stroke-width="1.0000"  stroke-linecap="round"  stroke-linejoin="round" fill="none" />
<path d="M 68.0000,421.0000 L 251.0000,431.0000 " stroke="#000000" stroke-width="1.0000"  stroke-linecap="round"  stroke-linejoin="round" fill="none" />
<path d="M 67.0000,433.0000 L 252.0000,444.0000 " stroke="#000000" stroke-width="1.0000"  stroke-linecap="round"  stroke-linejoin="round" fill="none" />
<path d="M 31.0000,444.0000 L 55.0000,445.0000 L 93.0000,448.0000 L 129.0000,451.0000 L 173.0000,453.0000 L 207.0000,456.0000 L 243.0000,458.0000 L 271.0000,459.0000 L 295.0000,461.0000 L 322.0000,461.0000 " stroke="#000000" stroke-width="1.0000"  stroke-linecap="round"  stroke-linejoin="round" fill="none" />
<path d="M 57.0000,338.0000 L 93.0000,339.0000 L 146.0000,342.0000 L 201.0000,345.0000 L 263.0000,348.0000 L 336.0000,350.0000 L 369.0000,350.0000 " stroke="#000000" stroke-width="1.0000"  stroke-linecap="round"  stroke-linejoin="round" fill="none" />
<path d="M 14.0000,491.0000 L 46.0000,495.0000 L 78.0000,498.0000 L 114.0000,502.0000 L 145.0000,505.0000 L 178.0000,508.0000 L 213.0000,510.0000 L 245.0000,512.0000 L 303.0000,512.0000 " stroke="#000000" stroke-width="1.0000"  stroke-linecap="round"  stroke-linejoin="round" fill="none" />
<path d="M 78.0000,521.0000 L 141.0000,528.0000 L 190.0000,532.0000 L 233.0000,536.0000 L 261.0000,537.0000 L 285.0000,537.0000 L 305.0000,536.0000 " stroke="#000000" stroke-width="1.0000"  stroke-linecap="round"  stroke-linejoin="round" fill="none" />
<path d="M 319.0000,462.0000 L 303.0000,467.0000 L 289.0000,472.0000 L 284.0000,476.0000 L 281.0000,481.0000 L 281.0000,512.0000 L 284.0000,520.0000 L 287.0000,526.0000 L 291.0000,532.0000 L 302.0000,542.0000 L 315.0000,550.0000 L 375.0000,550.0000 L 385.0000,539.0000 L 385.0000,526.0000 L 385.0000,472.0000 L 349.0000,467.0000 L 334.0000,463.0000 L 319.0000,462.0000 Z" stroke="#000000" stroke-width="1.0000"  stroke-linecap="round"  stroke-linejoin="round"  fill="#DF1F3F" />
<path d="M 264.0000,358.0000 L 300.0000,359.0000 L 338.0000,359.0000 L 335.0000,416.0000 L 295.0000,415.0000 L 262.0000,414.0000 L 264.0000,358.0000 Z" stroke="#000000" stroke-width="1.0000"  stroke-linecap="round"  stroke-linejoin="round"  fill="#DFDFDF" />
<path d="M 341.0000,359.0000 L 339.0000,416.0000 L 361.0000,416.0000 L 361.0000,359.0000 L 341.0000,359.0000 Z" stroke="#000000" stroke-width="1.0000"  stroke-linecap="round"  stroke-linejoin="round"  fill="#DFDFDF" />
<path d="M 261.0000,428.0000 L 295.0000,430.0000 L 328.0000,430.0000 L 323.0000,455.0000 L 309.0000,455.0000 L 289.0000,454.0000 L 261.0000,452.0000 L 261.0000,428.0000 Z" stroke="#000000" stroke-width="1.0000"  stroke-linecap="round"  stroke-linejoin="round"  fill="#DFDFDF" />
<path d="M 331.0000,430.0000 L 326.0000,455.0000 L 360.0000,455.0000 L 360.0000,430.0000 L 331.0000,430.0000 Z" stroke="#000000" stroke-width="1.0000"  stroke-linecap="round"  stroke-linejoin="round"  fill="#DFDFDF" />
<path d="M 57.0000,344.0000 L 48.0000,400.0000 L 65.0000,400.0000 L 71.0000,344.0000 L 57.0000,344.0000 Z" stroke="#000000" stroke-width="1.0000"  stroke-linecap="round"  stroke-linejoin="round"  fill="#DFDFDF" />
<path d="M 64.0000,412.0000 L 61.0000,434.0000 L 43.0000,434.0000 L 47.0000,412.0000 L 64.0000,412.0000 Z" stroke="#000000" stroke-width="1.0000"  stroke-linecap="round"  stroke-linejoin="round"  fill="#DFDFDF" />
</g>
</svg>
